<svg xmlns="http://www.w3.org/2000/svg" width="2993.333" height="2674.667"><path d="M20240 13542.4h-553.6l-260.4 1035.4v434.2s-1189.1-276-2351.4-280.2c-114-.4-227.8 1.8-340.2 7.1-2.8.2-5.6.3-8.4.5-53.3 2.6-106.3 5.9-158.8 10-3.4.3-6.8.5-10.2.8-54 4.3-107.5 9.3-160.4 15.3-.6.1-1.3.2-2 .3-53.6 6-106.5 13.1-158.6 21-2.6.4-5.3.8-7.9 1.3-22.4 3.4-44 7.7-66.1 11.5-3.6 1725.5-15.1 3115-42.6 3151.6-73.5 98-1028.7-857.2-2718.8-1249.1s-2179.9-2277.9-2179.9-2277.9c-552.6 759.3-3232.43 881.7-4558.54 465.4-1326.12-416.4-3646.82 122.4-3646.82 122.4v-416.4l-264.83-1053.2h-549.17c-91.16 0-165.75-74.6-165.75-165.7V2737.8c0-91.2 74.59-165.8 165.75-165.8h7544.55c188.47-267.9 760.91-462.7 1438.01-462.7s1249.6 194.8 1438.1 462.7h7618c91.2 0 165.8 74.6 165.8 165.8v10638.9c0 91.1-74.6 165.7-165.8 165.7" style="fill:#c7d9de;fill-opacity:1;fill-rule:nonzero;stroke:none" transform="matrix(.13333 0 0 -.13333 0 2674.667)"/><path d="m19686.4 13542.4-260.4 1035.4V4822.7c-1.3-.5-3.1-.9-4.5-1.3-367.4-121.5-2021.3-168.2-4415.9 344.2-2403.6 514.4-3784.9-538.8-3784.9-538.8S9839.31 5680 7435.72 5165.6c-2403.58-514.4-4061.23-465.4-4420.38-342.9v9772.9l-264.83-1053.2-29.1-115.7V3549l7464.29-65.5c-.2-3-1.1-6-1.1-9.1 0-250.2 466.1-548.6 1041-548.6s1041 298.4 1041 548.6c0 3.1-1 6.2-1.1 9.3l7425 65.1 25 .2v9877.7z" style="fill:#7a96a0;fill-opacity:1;fill-rule:nonzero;stroke:none" transform="matrix(.13333 0 0 -.13333 0 2674.667)"/><path d="m2721.41 3549 794.57 760.1c-377.87 7.4-500.64 48.2-500.64 48.2v10238.3l-264.83-1053.2-29.1-115.7z" style="fill:#97b6bc;fill-opacity:1;fill-rule:nonzero;stroke:none" transform="matrix(.13333 0 0 -.13333 0 2674.667)"/><path d="M11225.6 4310.5c-1.6-.7-3.3-1.3-4.9-1.9l-456.1 4.7c-293.9-95.7-495-288.4-495-511.1 0-317.9 409.3-575.6 914.3-575.6s914.4 257.7 914.4 575.6c0 222-200 414.3-492.4 510.3l-380.3-3.9z" style="fill:#40565e;fill-opacity:1;fill-rule:nonzero;stroke:none" transform="matrix(.13333 0 0 -.13333 0 2674.667)"/><path d="M19426 4822.7c-1.3-.5-3.1-.9-4.5-1.3v-464.1s-128-42.6-525.3-48.7l794.3-759.8 25 .2v9877.7l-29.1 115.7-260.4 1035.4z" style="fill:#97b6bc;fill-opacity:1;fill-rule:nonzero;stroke:none" transform="matrix(.13333 0 0 -.13333 0 2674.667)"/><path d="M11225.6 4310.5v-1.9l380.3 3.9 6024.5 62.8h-.1c-486.8 48-1096.8 126.6-1858.3 251.5-1650.5 270.5-2795.1 367.1-4546.4-316.3M11220.7 4308.6c-1754.17 685.6-2903.78 589-4555.82 318.2-761.46-124.9-1371.53-203.5-1858.36-251.5h-.09l5958.17-62z" style="fill:#637b83;fill-opacity:1;fill-rule:nonzero;stroke:none" transform="matrix(.13333 0 0 -.13333 0 2674.667)"/><path d="M4806.52 4375.3c486.83 48 1096.9 126.6 1858.36 251.5 1652.04 270.8 2801.65 367.4 4555.82-318.2 1.6.6 3.3 1.2 4.9 1.9 1751.3 683.4 2895.9 586.8 4546.4 316.3 761.5-124.9 1371.5-203.5 1858.3-251.5 583.6-57.5 989.9-70.9 1265.9-66.7 397.3 6.1 525.3 48.7 525.3 48.7v464.1c-367.4-121.5-2021.3-168.2-4415.9 344.2-2403.6 514.4-3784.9-538.8-3784.9-538.8S9839.31 5680 7435.72 5165.6c-2403.58-514.4-4061.23-465.4-4420.38-342.9v-465.4s122.77-40.8 500.64-48.2c276.32-5.5 689.21 6.9 1290.54 66.2" style="fill:#94aab4;fill-opacity:1;fill-rule:nonzero;stroke:none" transform="matrix(.13333 0 0 -.13333 0 2674.667)"/><path d="M20240 13542.4h-553.6l29.1-115.7V3549l-7450-65.3c.1-3.1 1.1-6.2 1.1-9.3 0-250.2-466.1-548.6-1041-548.6s-1041 298.4-1041 548.6c0 3.1.9 6.1 1.1 9.1L2721.41 3549v9877.7l29.1 115.7h-549.17c-91.16 0-165.75-74.6-165.75-165.7V2737.8c0-91.2 74.59-165.8 165.75-165.8h7544.55c188.47-267.9 760.91-462.7 1438.01-462.7s1249.6 194.8 1438.1 462.7h7618c91.2 0 165.8 74.6 165.8 165.8v10638.9c0 91.1-74.6 165.7-165.8 165.7" style="fill:#901f2a;fill-opacity:1;fill-rule:nonzero;stroke:none" transform="matrix(.13333 0 0 -.13333 0 2674.667)"/><path d="M20240 13542.4h-216.6c89 0 161.9-72.9 161.9-161.9V2976.2c0-89.1-72.9-162-161.9-162h-7671.8c-275.7-147.7-696.3-242.2-1167.7-242.2-471.3 0-891.9 94.5-1167.6 242.2H2417.97c-89.06 0-161.93 72.9-161.93 162v10404.3c0 89 72.87 161.9 161.93 161.9h-216.63c-91.16 0-165.75-74.6-165.75-165.7V2737.8c0-91.2 74.59-165.8 165.75-165.8h7544.55c188.47-267.9 760.91-462.7 1438.01-462.7s1249.6 194.8 1438.1 462.7h7618c91.2 0 165.8 74.6 165.8 165.8v10638.9c0 91.1-74.6 165.7-165.8 165.7" style="fill:#bf3846;fill-opacity:1;fill-rule:nonzero;stroke:none" transform="matrix(.13333 0 0 -.13333 0 2674.667)"/><path d="M16152 8080.3s-400-489.8-1992.1-857.2c-1170.8-270.2-2498.7-1438.6-2878-2411.8 193.5 254.5 411.3 490.1 654.1 698.8 454.3 390.6 986.5 659.6 1554.1 844.6 547.1 178.3 1112.3 270.7 1671.7 398.6 465.2 106.4 927.9 253.2 1351.2 476 196 103.2 392.3 227 561.6 377.6v7124.9c-114-.4-227.8 1.8-340.2 7.1-2.8.2-5.6.3-8.4.5-53.3 2.6-106.3 5.9-158.8 10-3.4.3-6.8.5-10.2.8-54 4.3-107.5 9.3-160.4 15.3-.6.1-1.3.2-2 .3-53.6 6-106.5 13.1-158.6 21-2.6.4-5.3.8-7.9 1.3-22.4 3.4-44 7.7-66.1 11.5 6-2888.8-10-6719.3-10-6719.3" style="fill:#849daa;fill-opacity:1;fill-rule:nonzero;stroke:none" transform="matrix(.13333 0 0 -.13333 0 2674.667)"/><path d="M11220.7 4626.8c16.2 60.5 36.8 122.1 61.2 184.5 379.3 973.2 1707.2 2141.6 2878 2411.8 1592.1 367.4 1992.1 857.2 1992.1 857.2s16 3830.5 10 6719.3c-3.6 1725.5-15.1 3115-42.6 3151.6-73.5 98-1028.7-857.2-2718.8-1249.1s-2179.9-2277.9-2179.9-2277.9z" style="fill:#e2eaee;fill-opacity:1;fill-rule:nonzero;stroke:none" transform="matrix(.13333 0 0 -.13333 0 2674.667)"/></svg>